<svg xmlns="http://www.w3.org/2000/svg" viewBox="0 0 463.956 463.956">
  <path d="M311.978 463.956h-160v-104l80-40 80 40v104z" fill="#e6e6e6"/>
  <path d="M127.978 335.956l104-48 104 48v-40l-104-48-104 48v40z" fill="#d6562b"/>
  <path d="M311.978 79.956c.001-43.09-34.128-78.44-77.192-79.952a81.279 81.279 0 00-69 37.08 73.86 73.86 0 00-13.408 50.872h-.4l1.232 5.544a77.287 77.287 0 001.72 7.728 183.598 183.598 0 0058.32 98.344l18.728 16.384 7.88-5.912a183.6 183.6 0 0069.88-110.888l2.24-11.2h-.4c.256-2.632.4-5.296.4-8z" fill="#ed1c24"/>
  <circle cx="231.978" cy="79.956" r="32" fill="#f2f2f2"/>
  <path d="M207.978 407.956h48v56h-48v-56z" fill="#0378a3"/>
</svg>
