<svg height="562pt" viewBox="-75 -17 562 562.668" width="562pt" xmlns="http://www.w3.org/2000/svg">
  <path d="M347.824 0H172.195c-33.476 0-60.703 27.48-60.703 61.332v81.316c0 6.899 5.59 12.493 12.492 12.493 6.895 0 12.489-5.594 12.489-12.493V61.457a36.01 36.01 0 0110.324-25.578 35.98 35.98 0 0125.398-10.77h175.75c19.735 0 35.727 16.36 35.727 36.348v404.711a36.042 36.042 0 01-10.324 25.582 36.046 36.046 0 01-25.403 10.77h-175.75c-19.738 0-35.722-16.368-35.722-36.352v-80.691c0-6.899-5.594-12.489-12.489-12.489-6.902 0-12.492 5.59-12.492 12.489v80.691c0 33.852 27.227 61.332 60.703 61.332h175.75c33.477 0 60.707-27.48 60.707-61.332V61.457C408.652 27.605 381.422 0 347.824 0zm0 0"/>
  <path d="M35.922 276.3h171.75c6.894 0 12.492-5.59 12.492-12.488 0-6.902-5.598-12.492-12.492-12.492H35.922l28.851-34.101c4.45-5.274 3.782-13.16-1.5-17.61-5.277-4.449-13.164-3.78-17.613 1.496L-.559 255.691l-.37.375c-.126.13-.255.38-.376.5a.64.64 0 00-.25.5c-.125.125-.254.38-.375.5-.125.125-.125.375-.246.504-.129.121-.129.368-.254.496-.125.125-.125.375-.25.497-.12.253-.12.378-.25.625 0 .128-.125.375-.125.503 0 .25-.125.375-.125.625 0 .122-.125.375-.125.497 0 .25-.12.503-.12.753v.375a7.317 7.317 0 000 2.372v.375c0 .25.12.496.12.746 0 .129.125.375.125.504 0 .246.125.375.125.625 0 .12.125.375.125.496.13.25.13.375.25.625.125.125.125.375.25.504.125.246.125.37.254.496.121.125.121.375.246.496.121.129.25.379.375.504.125.12.125.25.25.496.121.129.25.379.375.504l.371.37 46.22 54.59c4.503 5.196 12.359 5.797 17.597 1.348 5.246-4.457 5.922-12.3 1.515-17.586zm0 0"/>
</svg>
