<svg xmlns="http://www.w3.org/2000/svg" viewBox="0 0 512.001 512.001">
  <path d="M437.019 74.982C388.668 26.63 324.381 0 256 0 187.62 0 123.333 26.63 74.981 74.982 26.629 123.334 0 187.622 0 256.002S26.628 388.669 74.981 437.02c48.353 48.35 112.64 74.98 181.02 74.98 68.379 0 132.668-26.629 181.019-74.981C485.371 388.667 512.001 324.38 512.001 256s-26.63-132.667-74.982-181.018zm-21.213 340.823c-42.686 42.686-99.439 66.193-159.805 66.193-60.366 0-117.12-23.508-159.806-66.193-42.686-42.685-66.194-99.438-66.194-159.804 0-60.367 23.508-117.12 66.193-159.806C138.881 53.51 195.633 30.002 256 30.002c60.367 0 117.12 23.508 159.805 66.193s66.193 99.439 66.193 159.806c.001 60.366-23.507 117.12-66.192 159.804z"/>
  <path d="M460.722 255.995v-.002c-.004-113.325-92.202-205.52-205.527-205.52S49.672 142.669 49.668 255.993v.008c0 113.327 92.199 205.527 205.527 205.527l.222-.003c.019 0 .037.003.056.003.031 0 .062-.004.093-.005 113.157-.202 205.156-92.319 205.156-205.522v-.006zM240.194 81.123v68.609c-47.194 6.63-84.632 44.069-91.262 91.263H80.317c7.219-84.841 75.037-152.657 159.877-159.872zm0 99.03v60.842h-60.842c6.047-30.62 30.222-54.797 60.842-60.842zm.277 250.75c-84.974-7.091-152.934-74.97-160.155-159.907h68.615c6.643 47.287 44.215 84.779 91.54 91.301v68.606zm0-99.016c-30.75-5.954-55.054-30.179-61.119-60.891h61.119v60.891zm29.724-250.764c84.841 7.215 152.659 75.031 159.877 159.872h-68.614c-6.63-47.195-44.068-84.633-91.263-91.263V81.123zm0 99.029c30.62 6.046 54.796 30.222 60.843 60.843h-60.843v-60.843zm60.841 90.844c-6.028 30.528-30.074 54.655-60.564 60.792v-60.792h60.564zm-60.563 159.858v-68.635c47.064-6.738 84.368-44.122 90.985-91.223h68.615c-7.206 84.752-74.886 152.518-159.6 159.858z"/>
</svg>
