<svg xmlns="http://www.w3.org/2000/svg">
<defs>

<symbol id="logo" viewBox="0 0 512.007 512.007">
<title>Logo</title>
  <circle cx="256.003" cy="256.003" r="256.003" fill="#364d21"/>
  <path d="M384.207 251.74L348.2 215.732h-33.168l-9.735 37.021-37.021-37.021h-27.979L210.8 186.235c-7.507-7.914-16.523-13.422-27.049-16.523-7.834-2.283-19.217-3.427-34.149-3.427H83.387v179.43L249.59 511.918c2.13.052 4.266.081 6.408.081 127.776 0 233.677-93.616 252.882-215.998l-80.269-80.269h-33.903l-10.501 36.008z" fill="#1d2b10"/>
  <g fill="#8dc652">
    <path d="M83.388 166.285h66.216c14.932 0 26.315 1.144 34.149 3.427 10.525 3.102 19.54 8.61 27.049 16.523 7.506 7.916 13.219 17.606 17.136 29.069 3.917 11.465 5.875 25.601 5.875 42.41 0 14.769-1.836 27.498-5.508 38.187-4.489 13.056-10.893 23.623-19.216 31.7-6.285 6.119-14.77 10.893-25.458 14.32-7.997 2.531-18.686 3.795-32.067 3.795H83.388V166.285zm36.228 30.355v118.845h27.05c10.117 0 17.421-.57 21.909-1.713 5.875-1.469 10.749-3.957 14.626-7.466 3.874-3.508 7.037-9.281 9.485-17.319 2.448-8.036 3.672-18.99 3.672-32.862 0-13.87-1.224-24.519-3.672-31.944-2.448-7.424-5.875-13.219-10.281-17.38-4.407-4.161-9.997-6.976-16.769-8.445-5.061-1.142-14.974-1.713-29.741-1.713l-16.279-.003zM275.987 345.716l-41.125-129.982h33.414l24.356 85.187 22.399-85.187H348.2l21.665 85.187 24.845-85.187h33.903l-41.736 129.982h-33.046l-22.399-83.596-22.031 83.596h-33.414z"/>
  </g>

<symbol id="filters" width="22" height="22" viewBox="0 0 24 24" fill="none" stroke="#606060" stroke-linejoin="bevel">
<title>Filters</title>
    <path d="M4 21v-7M4 10V3M12 21v-9M12 8V3M20 21v-5M20 12V3M1 14h6M9 8h6M17 16h6"/>


<symbol height="682pt" viewBox="-21 -45 682.666 682" width="682pt" xmlns="http://www.w3.org/2000/svg">
  <path d="M315.367 336.04c16.906 29.87 48.867 48.765 83.563 48.765 17.433.257 17.183-25.61 0-25.262-23.383 0-45.078-11.64-58.153-30.465 12.727-8.043 21.211-22.23 21.211-38.371 0-16.894-9.289-31.648-23.02-39.457 12.766-20.473 35.15-33.16 59.962-33.16h149.715c4.074 0 6.972-1.996 10-4.492 26.921-22.188 60.421-49.805 73.351-87.809 12.703-37.34.145-83.652-29.2-107.734h-.003c-31.375-25.739-76.914-25.739-108.285 0-28.668 23.515-41.512 66.863-30.54 103.07 8.481 27.992 28.61 51.414 50.626 71.703H398.93c-36.66 0-69.414 20.406-85.664 52.645-23.454 1.726-42.012 21.343-42.012 45.23 0 24.602 19.672 44.668 44.113 45.336zM488.145 113.8c-8.008-26.417 1.617-59.179 22.382-76.214 11.043-9.059 24.582-13.59 38.125-13.59 13.54 0 27.078 4.531 38.125 13.59 21.282 17.46 30.645 52.629 21.309 80.066-9.793 28.774-35.332 51.446-59.422 71.426-25.469-21.344-51.726-46.266-60.52-75.277zM316.617 270.603c11.086 0 20.106 9.02 20.106 20.105 0 11.086-9.02 20.106-20.106 20.106-11.086 0-20.105-9.02-20.105-20.106 0-11.086 9.02-20.105 20.105-20.105zm0 0"/>
  <path d="M640 477.031c0-23.105-17.363-42.215-39.723-45.004-7.62-20.023-19.015-36.87-33.261-49.062-18.16-15.54-40.141-23.418-65.336-23.418-16.215 0-16.243 25.258 0 25.258 19.847 0 54.297 7.043 73.09 51.449-15.09 7.379-25.504 22.883-25.504 40.777 0 17.223 9.644 32.227 23.82 39.914-15.399 29.563-46.258 48.72-80.246 48.72H156.625c32.187-27.778 65.332-61.259 79.762-103.669 17.554-51.605.25-115.574-40.25-148.797-43.067-35.332-105.582-35.332-148.649 0-39.543 32.442-57.254 92.274-42.11 142.274 16.142 53.238 62.966 95.152 105.595 130.265 4.386 3.61 7.933 5.184 13.66 5.184h368.203c45.887 0 87.324-27.27 105.746-68.711C621.75 520.207 640 500.715 640 477.03zM29.555 448.145c-12.114-39.98 2.484-89.598 33.96-115.418 16.235-13.32 36.942-20.657 58.301-20.657 21.356 0 42.059 7.336 58.301 20.657 32.246 26.453 46.461 79.66 32.352 121.132-15.043 44.223-54.457 78.176-90.649 108.07-38.3-31.84-78.785-69.316-92.265-113.784zm565.078 48.996c-11.086 0-20.11-9.024-20.11-20.11 0-11.082 9.024-20.105 20.11-20.105 11.082 0 20.105 9.023 20.105 20.105 0 11.086-9.023 20.11-20.105 20.11zm0 0M593.988 87.16c0-24.996-20.336-45.336-45.336-45.336s-45.336 20.34-45.336 45.336c0 25 20.336 45.34 45.336 45.34s45.336-20.34 45.336-45.34zm-65.414 0c0-11.07 9.004-20.074 20.078-20.074 11.067 0 20.078 9.004 20.078 20.074 0 11.074-9.011 20.078-20.078 20.078-11.074 0-20.078-9.004-20.078-20.078zm0 0"/>
  <path d="M441.684 363.242c-4.844 4.844-4.844 13.024 0 17.863 4.859 4.856 13.011 4.852 17.87 0 4.72-4.714 4.868-12.546.372-17.453-4.79-5.23-13.211-5.41-18.242-.41-2.348 2.348 2.363-2.347 0 0zm0 0M181.46 416.34c0-32.887-26.757-59.645-59.644-59.645-32.89 0-59.644 26.758-59.644 59.645 0 32.89 26.754 59.64 59.644 59.64 32.887 0 59.645-26.75 59.645-59.64zm-59.644 34.383c-18.96 0-34.386-15.426-34.386-34.383 0-18.961 15.425-34.387 34.386-34.387 18.961 0 34.38 15.426 34.38 34.387 0 18.957-15.419 34.383-34.38 34.383zm0 0"/>
</svg>


</svg>




