
<svg xmlns="http://www.w3.org/2000/svg">
<defs> 
<symbol id="google" viewBox="0 0 512 512">
  <title>Icon google</title>
  <!-- Si necesita una descripcion  <desc>Login with google</desc> -->
  <path d="M113.47 309.408L95.648 375.94l-65.139 1.378C11.042 341.211 0 299.9 0 256c0-42.451 10.324-82.483 28.624-117.732h.014L86.63 148.9l25.404 57.644c-5.317 15.501-8.215 32.141-8.215 49.456.002 18.792 3.406 36.797 9.651 53.408z" fill="#fbbb00"/>
  <path d="M507.527 208.176C510.467 223.662 512 239.655 512 256c0 18.328-1.927 36.206-5.598 53.451-12.462 58.683-45.025 109.925-90.134 146.187l-.014-.014-73.044-3.727-10.338-64.535c29.932-17.554 53.324-45.025 65.646-77.911h-136.89V208.176h245.899z" fill="#518ef8"/>
  <path d="M416.253 455.624l.014.014C372.396 490.901 316.666 512 256 512c-97.491 0-182.252-54.491-225.491-134.681l82.961-67.91c21.619 57.698 77.278 98.771 142.53 98.771 28.047 0 54.323-7.582 76.87-20.818l83.383 68.262z" fill="#28b446"/>
  <path d="M419.404 58.936l-82.933 67.896C313.136 112.246 285.552 103.82 256 103.82c-66.729 0-123.429 42.957-143.965 102.724l-83.397-68.276h-.014C71.23 56.123 157.06 0 256 0c62.115 0 119.068 22.126 163.404 58.936z" fill="#f14336"/>
</symbol>
<!-- X CLOSE -->
<symbol id="xClose" viewBox="0 0 24 24">
  <title>Icon xClose</title>
  <!-- Si necesita  <desc></desc> -->
  <path d="M18 6L6 18M6 6l12 12"
     fill="none" 
     stroke="#000" 
     stroke-width="2" 
     stroke-linecap="round" 
     stroke-linejoin="round"
  />
</symbol>
<!-- SEARCH -->

<symbol id="search" viewBox="0 0 24 24">
  <title>Icon search</title>

<path d="M21 21l-4.35-4.35"
    fill="none" 
    stroke="#555" 
    stroke-width="2" 
    stroke-linecap="round" 
    stroke-linejoin="round"
  />
  <circle cx="11" cy="11" r="8" stroke="#555" fill="#fff"/>
</symbol>
<!-- COLLECTION ICON -->
<symbol id="collection" viewBox="0 0 24 24">
  <title>Icon collection</title>
  <!-- Si necesita  <desc></desc> -->
  <path d="M3 3h18v18H3zm9 5v8m-4-4h8"
    fill="none" 
    stroke="#555" 
    stroke-width="2" 
    stroke-linecap="round" 
    stroke-linejoin="round"
  />
</symbol>

<!-- SMS -->
<symbol id="sms" viewBox="0 0 24 24">
  <title>Icon sms</title>
  <!-- Si necesita  <desc></desc> -->
  <path d="M21 15a2 2 0 01-2 2H7l-4 4V5a2 2 0 012-2h14a2 2 0 012 2z"
    fill="none" 
    stroke="#555" 
    stroke-width="2" 
    stroke-linecap="round" 
    stroke-linejoin="round"
  />
</symbol>

<!-- LOCATION -->
<symbol id="location" viewBox="0 0 24 24">
  <title>Icon location</title>
  <!-- Si necesita  <desc></desc> -->
  
  <path d="M12 21.7C17.3 17 20 13 20 10a8 8 0 10-16 0c0 3 2.7 6.9 8 11.7z"
    fill="none" 
    stroke="#555" 
    stroke-width="2" 
    stroke-linecap="round" 
    stroke-linejoin="round"
  />
  <circle cx="12" cy="10" r="3" stroke="#555" fill="none"/>
</symbol>

<!-- EYE -->
<symbol id="eye" viewBox="0 0 24 24">
  <title>Icon eye</title>
  <!-- Si necesita  <desc></desc> -->
  
  <path d="M1 12s4-8 11-8 11 8 11 8-4 8-11 8-11-8-11-8z"
    fill="#fff" 
    stroke="#555" 
    stroke-width="2" 
    stroke-linecap="round" 
    stroke-linejoin="round"
  />
  <circle cx="12" cy="12" r="3" fill="#fff" stroke="#555"></circle>
</symbol>

<!-- CHECK-RIGHT -->
<symbol id="right" viewBox="0 0 24 24">
  <title>Icon rght</title>
  <!-- Si necesita  <desc></desc> -->
  
  <path d="M9 18l6-6-6-6"
    fill="#fff" 
    stroke="#555" 
    stroke-width="2" 
    stroke-linecap="round" 
    stroke-linejoin="round"
  />
</symbol>

<!-- CHECK-LEFT -->
<symbol id="left" viewBox="0 0 24 24">
  <title>Icon left</title>
  <!-- Si necesita  <desc></desc> -->
  
  <path d="M15 18l-6-6 6-6"
    fill="#fff" 
    stroke="#555" 
    stroke-width="2" 
    stroke-linecap="round" 
    stroke-linejoin="round"
  />
</symbol>

<!-- BELL -->
<symbol id="bell" viewBox="0 0 24 24">
  <title>Icon bell</title>
  <!-- Si necesita  <desc></desc> -->
  
  <path d="M22 17H2a3 3 0 0 0 3-3V9a7 7 0 0 1 14 0v5a3 3 0 0 0 3 3zm-8.27 4a2 2 0 0 1-3.46 0"
    fill="#fff" 
    stroke="#555" 
    stroke-width="2" 
    stroke-linecap="round" 
    stroke-linejoin="round"
  />
</symbol>

<!-- EXIT-USER -->
<symbol id="exit" viewBox="0 0 24 24">
  <title>Icon exit</title>
  <!-- Si necesita  <desc></desc> -->
  
  <path d="M16 17l5-5-5-5m3.8 5H9m1-9H4v18h6"
    fill="#fff" 
    stroke="#555" 
    stroke-width="2" 
    stroke-linecap="round" 
    stroke-linejoin="round"
  />
</symbol>



<!-- HOVER-ICONS -->

<!-- LIKE -->
<symbol id="like" viewBox="0 0 24 24">
  <title>Icon like</title>
  <!-- Si necesita  <desc></desc> -->
  
  <path d="M20.84 4.61a5.5 5.5 0 00-7.78 0L12 5.67l-1.06-1.06a5.5 5.5 0 00-7.78 7.78l1.06 1.06L12 21.23l7.78-7.78 1.06-1.06a5.5 5.5 0 000-7.78z"
    fill="#fff" 
    stroke="#f1f1f1" 
    stroke-width="2" 
    stroke-linecap="round" 
    stroke-linejoin="round"
  />
</symbol>

<!-- COLLECTION-HOVER -->
<symbol id="collection-hover" viewBox="0 0 24 24">
  <title>Icon collection-hover</title>
  <!-- Si necesita  <desc></desc> -->
  
  <path d="M3 3h18v18H3zm9 5v8m-4-4h8"
    fill="#777" 
    stroke="#f2f2f2" 
    stroke-width="2" 
    stroke-linecap="round" 
    stroke-linejoin="round"
  />
</symbol>

<!-- DOWNLOAD -->
<symbol id="download" viewBox="0 0 24 24">
  <title>Icon download</title>
  <!-- Si necesita  <desc></desc> -->
  
  <path d="M3 15v4c0 1.1.9 2 2 2h14a2 2 0 0 0 2-2v-4M17 9l-5 5-5-5M12 12.8V2.5"
    fill="#fff" 
    stroke="#555" 
    stroke-width="2" 
    stroke-linecap="round" 
    stroke-linejoin="round"
  />
</symbol>
</defs>
</svg>
