<!--Sprite svg-->
<svg xmlns="http://www.w3.org/2000/svg">


  <!--Siguiente-->
  <symbol id="siguiente" width="10" height="11" viewBox="0 0 10 11" fill="none"
    xmlns="http://www.w3.org/2000/svg">
    <path fill-rule="evenodd" clip-rule="evenodd" d="M1.2896 0.899312C1.19967 0.848014 1.09743 0.820984 0.993332 0.820984C0.668556 0.820984 0.405273 1.0785 0.405273 1.39617V4.26264V6.58095V9.44742C0.405273 9.54925 0.432909 9.64924 0.485355 9.7372C0.648978 10.0116 1.00905 10.1043 1.2896 9.94428L7.18548 6.58095V9.0541C7.18548 9.58904 7.61914 10.0227 8.15409 10.0227C8.68903 10.0227 9.12269 9.58904 9.12269 9.0541V1.78959C9.12269 1.25464 8.68903 0.820984 8.15409 0.820984C7.61914 0.820984 7.18548 1.25464 7.18548 1.78959V4.26264L1.2896 0.899312Z" fill="white" />
  </symbol>
  <!--Repetir-->
  <symbol id="repetir" width="15" height="14" viewBox="0 0 15 14" fill="none"
    xmlns="http://www.w3.org/2000/svg">
    <path fill-rule="evenodd" clip-rule="evenodd" d="M7.35722 3.56284H11.4494V4.85592L14.7966 2.67982L11.4494 0.503723V1.82196H7.35722C3.13998 1.82196 0.849976 3.89209 0.849976 7.90246H2.33762C2.33762 4.96609 3.8899 3.56284 7.35722 3.56284ZM8.28936 10.5012H4.19717V9.20812L0.849976 11.3842L4.19717 13.5603V12.2421H8.28936C12.5066 12.2421 14.7966 10.172 14.7966 6.16158H13.309C13.309 9.09796 11.7567 10.5012 8.28936 10.5012Z" fill="white"/>
  </symbol>
  <!--Volumen-->
  <symbol id="volumen" width="15" height="11" viewBox="0 0 15 11" fill="none"
    xmlns="http://www.w3.org/2000/svg">
    <path fill-rule="evenodd" clip-rule="evenodd" d="M14.0985 5.49997C14.0982 7.44551 13.3196 9.31008 11.9362 10.678L11.0258 9.71071C12.1324 8.59019 12.7468 7.07478 12.7328 5.49997C12.7468 3.92516 12.1324 2.40975 11.0258 1.28923L11.9362 0.321899C13.3196 1.68986 14.0982 3.55443 14.0985 5.49997ZM0.442017 3.67911H3.17331L6.81503 0.94782V10.0521L3.17331 7.32083H0.442017V3.67911ZM9.71702 8.40197C10.4847 7.63159 10.9146 6.58756 10.912 5.49997C10.9146 4.41238 10.4847 3.36835 9.71702 2.59797L8.74969 3.56531C9.2615 4.07889 9.54809 4.77491 9.54632 5.49997C9.54809 6.22503 9.2615 6.92105 8.74969 7.43463L9.71702 8.40197Z" fill="white" />
  </symbol>
  <!--Lista-->
  <symbol id="lista" width="13" height="13" viewBox="0 0 13 13" fill="none"
    xmlns="http://www.w3.org/2000/svg">
    <path fill-rule="evenodd" clip-rule="evenodd" d="M0.936195 6.2811L5.68826 3.50958C5.74728 3.47516 5.7964 3.42604 5.83082 3.36702C5.941 3.1781 5.87718 2.93563 5.68826 2.82545L0.936195 0.0539266C0.87564 0.0186093 0.806794 0 0.736693 0C0.517991 0 0.340698 0.177293 0.340698 0.395994V5.93903C0.340698 6.00913 0.359308 6.07798 0.394625 6.13853C0.504807 6.32745 0.747276 6.39128 0.936195 6.2811ZM12.2634 2.66542H6.74427L6.77186 2.68151C7.04026 2.83805 7.13094 3.18254 6.97441 3.45094C6.9255 3.5348 6.85572 3.60458 6.77186 3.65349L6.0522 4.07322H12.2634C12.6521 4.07322 12.9672 3.75807 12.9672 3.36932C12.9672 2.98057 12.6521 2.66542 12.2634 2.66542ZM2.40886 11.1122C2.0201 11.1122 1.70496 11.4274 1.70496 11.8161C1.70496 12.2049 2.0201 12.52 2.40886 12.52H12.2634C12.6522 12.52 12.9673 12.2049 12.9673 11.8161C12.9673 11.4274 12.6522 11.1122 12.2634 11.1122H2.40886ZM2.40886 6.88881C2.0201 6.88881 1.70496 7.20396 1.70496 7.59271C1.70496 7.98147 2.0201 8.29661 2.40886 8.29661H12.2634C12.6522 8.29661 12.9673 7.98147 12.9673 7.59271C12.9673 7.20396 12.6522 6.88881 12.2634 6.88881H2.40886Z" fill="white"/>
  </symbol>

  <symbol id="lupa" fill="#000" width="15" height="11"
    xmlns="http://www.w3.org/2000/svg" viewBox="0 0 512 512">
    <path d="M508.875 493.792L353.089 338.005c32.358-35.927 52.245-83.296 52.245-135.339C405.333 90.917 314.417 0 202.667 0S0 90.917 0 202.667s90.917 202.667 202.667 202.667c52.043 0 99.411-19.887 135.339-52.245l155.786 155.786a10.634 10.634 0 007.542 3.125c2.729 0 5.458-1.042 7.542-3.125 4.166-4.167 4.166-10.917-.001-15.083zM202.667 384c-99.979 0-181.333-81.344-181.333-181.333S102.688 21.333 202.667 21.333 384 102.677 384 202.667 302.646 384 202.667 384z"/>
  </symbol>

  <!-- Close -->
  <symbol viewBox="0 0 18 18" id="close">
    <svg width="18" height="18" fill="currentColor" viewBox="0 0 18 18">
      <path d="M14.53 4.53l-1.06-1.06L9 7.94 4.53 3.47 3.47 4.53 7.94 9l-4.47 4.47 1.06 1.06L9 10.06l4.47 4.47 1.06-1.06L10.06 9z"/>
    </svg>
  </symbol>

</svg>
