<svg xmlns="http://www.w3.org/2000/svg" viewBox="0 0 504 504">
  <path d="M452.704 108.74a8.647 8.647 0 00-.272-1.004c-.056-.152-.076-.312-.136-.464a7.822 7.822 0 00-.54-1.024c-.064-.104-.104-.224-.18-.328a7.587 7.587 0 00-.976-1.196L348.184 2.308a7.197 7.197 0 00-1.192-.98c-.108-.072-.224-.116-.332-.18a7.32 7.32 0 00-1.02-.544c-.152-.064-.312-.092-.468-.148-.328-.112-.656-.236-1-.304a8.418 8.418 0 00-1.56-.152h-267.8C61.784 0 51.188 10.592 51.188 23.62v456.752C51.188 493.4 61.784 504 74.812 504h354.476c13.028 0 23.524-10.6 23.524-23.628V110.296c0-.528-.004-1.048-.108-1.556zm-15.64 371.632c0 4.34-3.428 7.88-7.772 7.88H74.812c-4.344 0-7.876-3.54-7.876-7.88V23.62c0-4.34 3.532-7.872 7.876-7.872h259.876v68.296c0 18.816 15.36 34.08 34.172 34.08h68.204v362.248z"/>
  <path d="M405.56 165.372H98.436a7.876 7.876 0 00-7.876 7.876v236.248a7.876 7.876 0 007.876 7.876H405.56a7.878 7.878 0 007.876-7.876V173.248a7.878 7.878 0 00-7.876-7.876zM129.936 401.624h-23.624V378h23.624v23.624zm0-39.376h-23.624v-23.624h23.624v23.624zm0-39.376h-23.624v-23.624h23.624v23.624zm0-39.372h-23.624v-23.624h23.624V283.5zm0-39.376h-23.624V220.5h23.624v23.624zm0-39.376h-23.624v-23.624h23.624v23.624zm102.376 196.876h-86.624V378h86.624v23.624zm0-39.376h-86.624v-23.624h86.624v23.624zm0-39.376h-86.624v-23.624h86.624v23.624zm0-39.372h-86.624v-23.624h86.624V283.5zm0-39.376h-86.624V220.5h86.624v23.624zm0-39.372h-86.624v-23.624h86.624v23.624zM315 401.624h-66.936V378H315v23.624zm0-39.376h-66.936v-23.624H315v23.624zm0-39.376h-66.936v-23.624H315v23.624zm0-39.372h-66.936v-23.624H315V283.5zm0-39.376h-66.936V220.5H315v23.624zm0-39.372h-66.936v-23.624H315v23.624zm82.688 196.872h-66.936V378h66.936v23.624zm0-39.376h-66.936v-23.624h66.936v23.624zm0-39.376h-66.936v-23.624h66.936v23.624zm0-39.372h-66.936v-23.624h66.936V283.5zm0-39.376h-66.936V220.5h66.936v23.624zm0-39.372h-66.936v-23.624h66.936v23.624z"/>
</svg>
