<svg xmlns="http://www.w3.org/2000/svg" viewBox="0 0 448 448">
  <path d="M303.888 80.192C303.888 35.904 268.16 0 223.84 0c-44.288 0-79.968 34.496-79.968 78.784V256c-19.744 20.256-32.128 49.28-32.128 79.808C111.744 397.744 162 448 224 448c61.968 0 112.256-50.256 112.256-112.192 0-30.688-12.496-58.432-32.368-78.72V80.192z" fill="#dfe9f7"/>
  <path fill="#c2d6ef" d="M191.778 64.003h64v96h-64z"/>
  <path d="M256 280.683V159.807h-64v120.877c-19.05 11.086-32 31.494-32 55.123 0 35.346 28.652 64 64 64s64-28.654 64-64c0-23.629-12.95-44.037-32-55.124z" fill="#d64230"/>
</svg>
